<?xml version="1.0" encoding="UTF-8" standalone="no"?>
<svg width="121px" height="31px" viewBox="0 0 121 31" version="1.1" xmlns="http://www.w3.org/2000/svg" xmlns:xlink="http://www.w3.org/1999/xlink">
    <!-- Generator: Sketch 45.1 (43504) - http://www.bohemiancoding.com/sketch -->
    <title>img/logo-bgdark</title>
    <desc>Created with Sketch.</desc>
    <defs></defs>
    <g id="Credito_Leads" stroke="none" stroke-width="1" fill="none" fill-rule="evenodd">
        <g id="02.Autenticacion" transform="translate(-112.000000, -23.000000)">
            <g id="img/logo-bgdark" transform="translate(111.000000, 23.375000)">
                <path d="M31.0442373,24.0627476 L32.6423865,16.9546037 L34.8448538,16.9546037 C37.9681184,16.9546037 40.5615308,17.8195706 40.4927932,20.6899476 C40.4168954,23.9271505 37.0859859,25.2460109 33.4471892,25.2460109 C32.875808,25.2460109 32.3330673,25.2460109 31.8218314,25.2288829 C30.81368,25.1389606 31.0442373,24.0627476 31.0442373,24.0627476 L31.0442373,24.0627476 Z M47.5598776,20.8483822 C47.5598776,16.5792138 44.5382873,14.7165376 42.0880783,14.5352656 C45.1784062,14.0228512 49.2654293,11.7562383 49.2654293,7.5869836 C49.2654293,3.13368863 44.7788689,0.754315971 38.0096474,0.754315971 C34.9350719,0.754315971 31.9421222,1.01409151 29.2728121,1.44372029 L24.4210832,22.8851937 C24.4210832,22.8851937 22.7456042,28.4261203 27.5128432,29.5822642 C28.8503623,29.9062699 29.7611355,30.0275937 31.244722,30.1103793 C43.9010325,30.8083476 47.5598776,25.1418153 47.5598776,20.8483822 L47.5598776,20.8483822 Z M35.1856777,5.73429871 C35.7012097,5.65436777 36.9270302,5.57443683 38.0970014,5.57443683 C40.6517489,5.57443683 42.4518148,6.4679505 42.4016936,8.52759942 C42.3358201,11.0240138 39.7925289,12.4413606 36.1207955,12.4413606 L34.6930582,12.4413606 C33.6562661,12.4413606 33.9598572,11.2580973 33.9598572,11.2580973 L35.1856777,5.73429871 Z" id="Fill-14" fill="#FFFFFF"></path>
                <path d="M78.5055449,30.1867419 C79.5337448,30.1867419 81.4727179,29.7856599 82.1343173,26.8467706 C82.6584415,24.5045088 83.5434381,20.5293721 83.5434381,20.5293721 C84.2322461,20.5750469 85.1874123,20.7006527 86.2972382,20.7006527 C97.1420265,20.7006527 100.911138,13.7566527 100.911138,9.03787281 C100.911138,3.88803683 97.3181666,0.933446906 89.4777842,0.903472806 C86.2671655,0.874926043 83.4933169,0.994822446 80.8583756,1.60286849 L74.4872594,30.1867419 L78.5055449,30.1867419 Z M87.2223317,5.9419764 C87.7808247,5.86061813 88.7445831,5.80066993 90.0319811,5.80066993 C92.5494956,5.80066993 94.6431284,6.54145842 94.6431284,9.55885122 C94.6431284,12.6276282 92.3003218,15.5893548 87.7435918,15.6250383 C87.4428648,15.6250383 87.1693465,15.6164742 86.9173086,15.6064829 C84.8780931,15.6064829 85.4494744,13.9122325 85.4494744,13.9122325 L87.2223317,5.9419764 Z" id="Fill-15" fill="#FFFFFF"></path>
                <path d="M58.5843861,17.558225 C58.5843861,12.9051027 61.6131366,5.95824806 68.5556342,5.95824806 C70.3671563,5.95824806 73.6250321,6.4278423 75.4966997,8.0935459 C75.4966997,8.0935459 76.1955319,5.72559194 76.3974486,4.74215597 C76.5950692,3.78013007 76.2341968,2.17437468 73.2598636,1.21805813 C71.3309147,0.598593381 69.8258477,0.298852374 67.6949821,0.298852374 C56.8373055,0.298852374 51.2137106,9.19116892 51.2137106,17.9407517 C51.2137106,27.2926711 57.4888807,30.4485157 63.9230064,30.4485157 C66.230012,30.4485157 67.7551275,30.2030135 69.2000491,29.6634797 C70.9757705,29.044015 71.2750654,27.4496783 71.2750654,27.4496783 L72.3462264,22.6438308 C69.6096107,24.6449588 67.5804195,24.9561186 65.7245043,24.9561186 C61.2135993,24.9561186 58.5843861,22.0700409 58.5843861,17.558225" id="Fill-16" fill="#FFFFFF"></path>
                <path d="M12.7256671,13.8233094 C14.4083062,9.73826763 14.1333559,4.21446906 11.4497254,3.01122302 C8.99378826,1.86078849 6.19989125,5.13367482 6.06957622,5.30210072 C6.06957622,5.30210072 5.14734676,6.42398849 4.44708247,7.99548777 C4.92824566,8.25669065 5.84761106,8.71058417 5.84761106,8.71058417 C7.73932707,9.61551655 10.2983706,11.1998619 12.7256671,13.8233094" id="Fill-17" fill="#FFFFFF"></path>
                <path d="M20.6284862,10.678598 C20.8475873,10.974057 23.4424317,14.1927045 21.052368,18.0008426 C18.4374752,22.1643879 11.2973571,26.9145692 9.27389398,27.6268109 C5.34153048,29.2668224 2.6779485,26.2251649 2.45168724,25.9054412 C1.71848618,24.963398 1.53948201,24.7635706 1.18433775,24.0755937 C17.2159508,16.8546901 14.4879273,4.43113899 11.4520167,3.01093755 C12.4272314,3.50051453 14.7285089,4.81794763 16.8049572,6.66206849 C18.8771094,8.41198504 20.6671511,10.7085721 20.6284862,10.678598" id="Fill-18" fill="#FD4F11"></path>
                <path d="M112.429698,13.8233094 C114.110905,9.73826763 113.837387,4.21446906 111.153757,3.01122302 C108.697819,1.86078849 105.903922,5.13367482 105.773607,5.30210072 C105.773607,5.30210072 104.851378,6.42398849 104.151114,7.99548777 C104.630845,8.25669065 105.551642,8.71058417 105.551642,8.71058417 C107.443358,9.61551655 110.002402,11.1998619 112.429698,13.8233094" id="Fill-19" fill="#FFFFFF"></path>
                <path d="M120.332374,10.678598 C120.550043,10.974057 123.14632,14.1927045 120.756256,18.0008426 C118.141363,22.1643879 111.001245,26.9145692 108.977782,27.6268109 C105.045418,29.2668224 102.381836,26.2251649 102.155575,25.9054412 C101.420942,24.963398 101.241938,24.7635706 100.888226,24.0755937 C116.919839,16.8546901 114.191815,4.43113899 111.154473,3.01093755 C112.129687,3.50051453 114.430965,4.81794763 116.507413,6.66206849 C118.579565,8.41198504 120.371039,10.7085721 120.332374,10.678598" id="Fill-20" fill="#FD4F11"></path>
            </g>
        </g>
    </g>
</svg>